<svg xmlns="http://www.w3.org/2000/svg" width="320" height="180" viewBox="0 0 320 180" shape-rendering="crispEdges">
  <rect width="320" height="180" fill="#33333b"/>
  <g fill="#3d3d47">
    <rect x="0" y="0" width="20" height="20"/>
    <rect x="40" y="0" width="20" height="20"/>
    <rect x="20" y="20" width="20" height="20"/>
    <rect x="60" y="20" width="20" height="20"/>
    <rect x="120" y="0" width="20" height="20"/>
    <rect x="180" y="20" width="20" height="20"/>
    <rect x="260" y="0" width="20" height="20"/>
    <rect x="300" y="20" width="20" height="20"/>
  </g>
  <rect x="0" y="120" width="320" height="60" fill="#4a4a56"/>
  <rect x="0" y="120" width="320" height="6" fill="#5b5b69"/>
  <g fill="#565663">
    <rect x="30" y="88" width="34" height="32"/>
    <rect x="96" y="72" width="46" height="48"/>
    <rect x="180" y="96" width="30" height="24"/>
    <rect x="240" y="80" width="52" height="40"/>
  </g>
  <rect x="148" y="96" width="12" height="24" fill="#7a7a8a"/>
  <rect x="148" y="90" width="12" height="8" fill="#8e8ea0"/>
  <rect x="0.5" y="0.5" width="319" height="179" fill="none" stroke="#6a6a78"/>
</svg>
